<svg xmlns="http://www.w3.org/2000/svg" width="175" height="21" viewBox="0 0 175 21" style="enable-background:new 0 0 174.7083282 20.917284"><switch><g><path d="m5.7305 20.4997l-5.4121-20.113h3.4214l4.1841 15.7178 4.5117-15.7178h3.007l4.4844 15.7168 4.1714-15.7168h3.2144l-5.3994 20.113h-3.7744l-4.2031-14.7354-4.2295 14.7354h-3.9761" style="fill:#be11a5"/><path d="m30.086.3864h3.2637v20.113h-3.2637v-20.113" style="fill:#be11a5"/><path d="m40.5854 17.3386h8.087v3.1611h-11.3511v-20.113h3.2637v16.9521" style="fill:#be11a5"/><path d="m58.8877.3864c2.7241 0 4.9897.9673 6.7964 2.9019 1.8062 1.9351 2.71 4.3198 2.71 7.1548 0 2.8154-.9038 5.1963-2.71 7.1406-1.8066 1.9443-4.0723 2.916-6.7964 2.916h-7.8037v-20.113h7.8037m0 16.9521c1.873 0 3.4004-.6504 4.583-1.9531 1.1821-1.3027 1.7734-2.9502 1.7734-4.9424 0-2.011-.5913-3.6636-1.7734-4.9565-1.1826-1.293-2.71-1.9395-4.583-1.9395h-4.54v13.7915h4.54" style="fill:#be11a5"/><path d="m83.065 10.07c.8701.4595 1.5508 1.0913 2.043 1.896.4917.8047.7378 1.7344.7378 2.7871 0 1.6484-.5771 3.018-1.731 4.1094s-2.5635 1.6377-4.228 1.6377h-8.5132v-20.113h7.8887c1.627 0 3.003.5313 4.1289 1.5947 1.1255 1.063 1.6885 2.3896 1.6885 3.9795 0 1.7432-.6714 3.1128-2.015 4.1089m-3.8027-6.5801h-4.625v5.2871h4.625c.7188 0 1.3242-.2539 1.8164-.7617.4917-.5073.7378-1.1348.7378-1.8818s-.2461-1.3745-.7378-1.8823c-.4922-.5073-1.0977-.7612-1.8164-.7612m.6245 13.9067c.7563 0 1.395-.2725 1.9155-.8184.52-.5459.7803-1.2119.7803-1.9971s-.2603-1.4512-.7803-1.9971c-.5205-.5459-1.1592-.8193-1.9155-.8193h-5.2495v5.6318h5.2495" style="fill:#be11a5"/><path d="m91.947 17.3386h8.7969v3.1611h-12.061v-20.113h11.9189v3.1606h-8.6553v5.2295h7.9453v3.1313h-7.9453v5.4307" style="fill:#be11a5"/><path d="m115.046 20.4997l-4.1963-7.3271h-3.8623v7.3271h-3.2637v-20.113h7.9453c1.7783 0 3.2871.6274 4.5264 1.8818 1.2393 1.2549 1.8584 2.7827 1.8584 4.583 0 1.2837-.3643 2.4565-1.0918 3.52-.7285 1.063-1.6797 1.8345-2.8525 2.313l4.5127 7.8154h-3.5762m-8.059-17.01v6.7236h4.6816c.8701 0 1.6084-.3257 2.2139-.9771.6055-.6509.9082-1.4458.9082-2.3848 0-.9385-.3027-1.7334-.9082-2.3848-.6055-.6509-1.3438-.9771-2.2139-.9771h-4.6816" style="fill:#be11a5"/><path d="m132.44 20.4997l-4.1963-7.3271h-3.8623v7.3271h-3.2637v-20.113h7.9453c1.7783 0 3.2871.6274 4.5264 1.8818 1.2393 1.2549 1.8584 2.7827 1.8584 4.583 0 1.2837-.3643 2.4565-1.0918 3.52-.7285 1.063-1.6797 1.8345-2.8525 2.313l4.5127 7.8154h-3.5762m-8.059-17.01v6.7236h4.6816c.8701 0 1.6084-.3257 2.2139-.9771.6055-.6509.9082-1.4458.9082-2.3848 0-.9385-.3027-1.7334-.9082-2.3848-.6055-.6509-1.3438-.9771-2.2139-.9771h-4.6816" style="fill:#be11a5"/><path d="m138.513.3864h3.2637v20.113h-3.2637v-20.113" style="fill:#be11a5"/><path d="m149.013 17.3386h8.7969v3.1611h-12.061v-20.113h11.9189v3.1606h-8.6553v5.2295h7.9453v3.1313h-7.9453v5.4307" style="fill:#be11a5"/><path d="m167.401 20.8737c-1.9111 0-3.5332-.4414-4.8672-1.3223s-2.2656-2.0879-2.7949-3.6201l2.8096-1.667c.7939 2.2607 2.4404 3.3906 4.9375 3.3906 1.2295 0 2.1514-.2432 2.7666-.7305.6143-.4873.9219-1.1221.9219-1.9053 0-.8223-.3311-1.4473-.9941-1.8779-.6631-.4297-1.8379-.9023-3.5234-1.418-.9238-.3477-1.6836-.6338-2.2793-.8574-.5957-.2246-1.2197-.5615-1.8721-1.0122-.6523-.4497-1.1396-1.01-1.4609-1.6807-.3223-.6704-.4824-1.4556-.4824-2.356 0-1.7817.624-3.1943 1.8721-4.2383 1.249-1.0439 2.7529-1.5659 4.5127-1.5659 1.5889 0 2.9795.3926 4.1709 1.1777 1.1924.7856 2.1094 1.8677 2.7529 3.2471l-2.7529 1.6089c-.832-1.877-2.2227-2.8159-4.1709-2.8159-.9463 0-1.7031.2256-2.2705.6753-.5674.4507-.8516 1.0586-.8516 1.8247 0 .7319.29 1.3086.8711 1.731.5791.4219 1.6309.8677 3.1533 1.3364.7422.2837 1.2861.4912 1.6309.6221.3447.1318.8398.3208 1.4854.5669.6455.2456 1.127.5049 1.4463.7764.3193.2725.6611.6113 1.0273 1.0186.3652.4082.623.873.7734 1.3975.1504.5234.2256 1.1152.2256 1.7744 0 1.8203-.6484 3.2617-1.9434 4.3252-1.2969 1.0625-2.9941 1.5947-5.0938 1.5947" style="fill:#be11a5"/></g></switch></svg>